{
  "accessors": [
    {
      "bufferView": 2,
      "componentType": 5126,
      "count": 560,
      "max": [
        7.6676802635192871,
        7.5511918067932129,
        14.167448043823242
      ],
      "min": [
        -7.6676812171936035,
        -7.5511922836303711,
        0
      ],
      "type": "VEC3"
    },
    {
      "bufferView": 2,
      "byteOffset": 6720,
      "componentType": 5126,
      "count": 560,
      "max": [
        1,
        0.98480778932571411,
        0.92020434141159058
      ],
      "min": [
        -1,
        -0.98480784893035889,
        -1
      ],
      "type": "VEC3"
    },
    {
      "bufferView": 1,
      "componentType": 5126,
      "count": 560,
      "max": [
        2.1703481674194336,
        2.6195614337921143
      ],
      "min": [
        -1.3035888671875,
        -0.58616751432418823
      ],
      "type": "VEC2"
    },
    {
      "bufferView": 0,
      "componentType": 5125,
      "count": 2220,
      "max": [
        559
      ],
      "min": [
        0
      ],
      "type": "SCALAR"
    },
    {
      "bufferView": 2,
      "byteOffset": 13440,
      "componentType": 5126,
      "count": 29245,
      "max": [
        40.059001922607422,
        60.010540008544922,
        75.85845947265625
      ],
      "min": [
        -50.659000396728516,
        -33.879398345947266,
        -0.25249505043029785
      ],
      "type": "VEC3"
    },
    {
      "bufferView": 2,
      "byteOffset": 364380,
      "componentType": 5126,
      "count": 29245,
      "max": [
        0.99993860721588135,
        0.99996304512023926,
        0.99984490871429443
      ],
      "min": [
        -0.99995791912078857,
        -0.99996119737625122,
        -0.99999350309371948
      ],
      "type": "VEC3"
    },
    {
      "bufferView": 3,
      "componentType": 5126,
      "count": 29245,
      "max": [
        0.99995768070220947,
        0.99982833862304688,
        0.99999356269836426,
        1
      ],
      "min": [
        -0.99993926286697388,
        -0.99996310472488403,
        -0.99995553493499756,
        -1
      ],
      "type": "VEC4"
    },
    {
      "bufferView": 1,
      "byteOffset": 4480,
      "componentType": 5126,
      "count": 29245,
      "max": [
        1.2035882472991943,
        3.5718793869018555
      ],
      "min": [
        -0.4024660587310791,
        -0.11025333404541016
      ],
      "type": "VEC2"
    },
    {
      "bufferView": 0,
      "byteOffset": 8880,
      "componentType": 5125,
      "count": 133035,
      "max": [
        29244
      ],
      "min": [
        0
      ],
      "type": "SCALAR"
    },
    {
      "bufferView": 2,
      "byteOffset": 715320,
      "componentType": 5126,
      "count": 65532,
      "max": [
        39.7313232421875,
        37.910266876220703,
        75.704254150390625
      ],
      "min": [
        -25.631410598754883,
        -33.752857208251953,
        27.875818252563477
      ],
      "type": "VEC3"
    },
    {
      "bufferView": 2,
      "byteOffset": 1501704,
      "componentType": 5126,
      "count": 65532,
      "max": [
        0.99996674060821533,
        0.99996286630630493,
        0.99999338388442993
      ],
      "min": [
        -0.9998895525932312,
        -0.99999523162841797,
        -0.99996936321258545
      ],
      "type": "VEC3"
    },
    {
      "bufferView": 1,
      "byteOffset": 238440,
      "componentType": 5126,
      "count": 65532,
      "max": [
        1,
        1.5000001192092896
      ],
      "min": [
        0,
        0
      ],
      "type": "VEC2"
    },
    {
      "bufferView": 0,
      "byteOffset": 541020,
      "componentType": 5125,
      "count": 181470,
      "max": [
        65531
      ],
      "min": [
        0
      ],
      "type": "SCALAR"
    },
    {
      "bufferView": 2,
      "byteOffset": 2288088,
      "componentType": 5126,
      "count": 65532,
      "max": [
        16.518333435058594,
        57.592174530029297,
        68.089309692382812
      ],
      "min": [
        -50.998443603515625,
        -25.214212417602539,
        22.373191833496094
      ],
      "type": "VEC3"
    },
    {
      "bufferView": 2,
      "byteOffset": 3074472,
      "componentType": 5126,
      "count": 65532,
      "max": [
        0.99999618530273438,
        0.99998235702514648,
        0.99996155500411987
      ],
      "min": [
        -0.99995577335357666,
        -0.99996155500411987,
        -0.99987131357192993
      ],
      "type": "VEC3"
    },
    {
      "bufferView": 1,
      "byteOffset": 762696,
      "componentType": 5126,
      "count": 65532,
      "max": [
        1,
        1.5000001192092896
      ],
      "min": [
        0,
        0
      ],
      "type": "VEC2"
    },
    {
      "bufferView": 0,
      "byteOffset": 1266900,
      "componentType": 5125,
      "count": 181455,
      "max": [
        65531
      ],
      "min": [
        0
      ],
      "type": "SCALAR"
    },
    {
      "bufferView": 2,
      "byteOffset": 3860856,
      "componentType": 5126,
      "count": 52227,
      "max": [
        32.120849609375,
        61.051113128662109,
        76.921485900878906
      ],
      "min": [
        -44.857048034667969,
        -14.081765174865723,
        28.936779022216797
      ],
      "type": "VEC3"
    },
    {
      "bufferView": 2,
      "byteOffset": 4487580,
      "componentType": 5126,
      "count": 52227,
      "max": [
        0.99998503923416138,
        0.99995136260986328,
        0.99996858835220337
      ],
      "min": [
        -0.9999045729637146,
        -0.99980747699737549,
        -0.99994617700576782
      ],
      "type": "VEC3"
    },
    {
      "bufferView": 1,
      "byteOffset": 1286952,
      "componentType": 5126,
      "count": 52227,
      "max": [
        1,
        1.5000001192092896
      ],
      "min": [
        0,
        0
      ],
      "type": "VEC2"
    },
    {
      "bufferView": 0,
      "byteOffset": 1992720,
      "componentType": 5125,
      "count": 144603,
      "max": [
        52226
      ],
      "min": [
        0
      ],
      "type": "SCALAR"
    },
    {
      "bufferView": 2,
      "byteOffset": 5114304,
      "componentType": 5126,
      "count": 65532,
      "max": [
        42.9071044921875,
        59.472522735595703,
        76.769279479980469
      ],
      "min": [
        -54.269775390625,
        -35.834117889404297,
        19.723731994628906
      ],
      "type": "VEC3"
    },
    {
      "bufferView": 2,
      "byteOffset": 5900688,
      "componentType": 5126,
      "count": 65532,
      "max": [
        0.99771243333816528,
        0.99746012687683105,
        0.99999892711639404
      ],
      "min": [
        -0.99993211030960083,
        -0.99820345640182495,
        -0.99999773502349854
      ],
      "type": "VEC3"
    },
    {
      "bufferView": 1,
      "byteOffset": 1704768,
      "componentType": 5126,
      "count": 65532,
      "max": [
        1,
        1
      ],
      "min": [
        0,
        0
      ],
      "type": "VEC2"
    },
    {
      "bufferView": 0,
      "byteOffset": 2571132,
      "componentType": 5125,
      "count": 196590,
      "max": [
        65531
      ],
      "min": [
        0
      ],
      "type": "SCALAR"
    },
    {
      "bufferView": 2,
      "byteOffset": 6687072,
      "componentType": 5126,
      "count": 15399,
      "max": [
        35.350612640380859,
        62.905239105224609,
        76.027290344238281
      ],
      "min": [
        -46.557159423828125,
        -13.728937149047852,
        27.244583129882812
      ],
      "type": "VEC3"
    },
    {
      "bufferView": 2,
      "byteOffset": 6871860,
      "componentType": 5126,
      "count": 15399,
      "max": [
        0.99829542636871338,
        0.99994361400604248,
        0.99999547004699707
      ],
      "min": [
        -0.95531493425369263,
        -0.99988782405853271,
        -0.9999958872795105
      ],
      "type": "VEC3"
    },
    {
      "bufferView": 1,
      "byteOffset": 2229024,
      "componentType": 5126,
      "count": 15399,
      "max": [
        1,
        1
      ],
      "min": [
        0,
        0
      ],
      "type": "VEC2"
    },
    {
      "bufferView": 0,
      "byteOffset": 3357492,
      "componentType": 5125,
      "count": 46194,
      "max": [
        15398
      ],
      "min": [
        0
      ],
      "type": "SCALAR"
    },
    {
      "bufferView": 2,
      "byteOffset": 7056648,
      "componentType": 5126,
      "count": 60153,
      "max": [
        42.068412780761719,
        60.684703826904297,
        77.341545104980469
      ],
      "min": [
        -52.813999176025391,
        -35.823207855224609,
        19.22578239440918
      ],
      "type": "VEC3"
    },
    {
      "bufferView": 2,
      "byteOffset": 7778484,
      "componentType": 5126,
      "count": 60153,
      "max": [
        0.99893200397491455,
        0.99990397691726685,
        0.99999600648880005
      ],
      "min": [
        -0.99903726577758789,
        -0.99979132413864136,
        -0.99999922513961792
      ],
      "type": "VEC3"
    },
    {
      "bufferView": 1,
      "byteOffset": 2352216,
      "componentType": 5126,
      "count": 60153,
      "max": [
        1,
        1
      ],
      "min": [
        0,
        0
      ],
      "type": "VEC2"
    },
    {
      "bufferView": 0,
      "byteOffset": 3542268,
      "componentType": 5125,
      "count": 180474,
      "max": [
        60152
      ],
      "min": [
        0
      ],
      "type": "SCALAR"
    },
    {
      "bufferView": 2,
      "byteOffset": 8500320,
      "componentType": 5126,
      "count": 992,
      "max": [
        6.5980391502380371,
        1.8773298263549805,
        14.124603271484375
      ],
      "min": [
        -21.651168823242188,
        -1.6161339282989502,
        -14.124605178833008
      ],
      "type": "VEC3"
    },
    {
      "bufferView": 2,
      "byteOffset": 8512224,
      "componentType": 5126,
      "count": 992,
      "max": [
        0.88178455829620361,
        1,
        0.88178485631942749
      ],
      "min": [
        -0.88178473711013794,
        -1,
        -0.88178455829620361
      ],
      "type": "VEC3"
    },
    {
      "bufferView": 1,
      "byteOffset": 2833440,
      "componentType": 5126,
      "count": 992,
      "max": [
        1.0101908445358276,
        1.0101907253265381
      ],
      "min": [
        -0.010190844535827637,
        -0.010190784931182861
      ],
      "type": "VEC2"
    },
    {
      "bufferView": 0,
      "byteOffset": 4264164,
      "componentType": 5125,
      "count": 1824,
      "max": [
        991
      ],
      "min": [
        0
      ],
      "type": "SCALAR"
    },
    {
      "bufferView": 2,
      "byteOffset": 8524128,
      "componentType": 5126,
      "count": 30,
      "max": [
        5.7169337272644043,
        5.1785397529602051,
        -1.0883922576904297
      ],
      "min": [
        -5.6384177207946777,
        -6.0042986869812012,
        -1.0883922576904297
      ],
      "type": "VEC3"
    },
    {
      "bufferView": 2,
      "byteOffset": 8524488,
      "componentType": 5126,
      "count": 30,
      "max": [
        0,
        0,
        1
      ],
      "min": [
        0,
        0,
        1
      ],
      "type": "VEC3"
    },
    {
      "bufferView": 1,
      "byteOffset": 2841376,
      "componentType": 5126,
      "count": 30,
      "max": [
        1,
        1
      ],
      "min": [
        0,
        0
      ],
      "type": "VEC2"
    },
    {
      "bufferView": 0,
      "byteOffset": 4271460,
      "componentType": 5125,
      "count": 120,
      "max": [
        29
      ],
      "min": [
        0
      ],
      "type": "SCALAR"
    }
  ],
  "asset": {
    "extras": {
      "author": "Gajk.Mv (https://sketchfab.com/Gajk.Mv)",
      "license": "CC-BY-4.0 (http://creativecommons.org/licenses/by/4.0/)",
      "source": "https://sketchfab.com/3d-models/bonsai-830745f712104f8eb9e910b0d6e5ea42",
      "title": "Bonsai"
    },
    "generator": "Sketchfab-8.11.0",
    "version": "2.0"
  },
  "bufferViews": [
    {
      "buffer": 0,
      "byteLength": 4271940,
      "byteOffset": 0,
      "name": "floatBufferViews",
      "target": 34963
    },
    {
      "buffer": 0,
      "byteLength": 2841616,
      "byteOffset": 4271940,
      "byteStride": 8,
      "name": "floatBufferViews",
      "target": 34962
    },
    {
      "buffer": 0,
      "byteLength": 8524848,
      "byteOffset": 7113556,
      "byteStride": 12,
      "name": "floatBufferViews",
      "target": 34962
    },
    {
      "buffer": 0,
      "byteLength": 467920,
      "byteOffset": 15638404,
      "byteStride": 16,
      "name": "floatBufferViews",
      "target": 34962
    }
  ],
  "buffers": [
    {
      "byteLength": 16106324,
      "uri": "scene.bin"
    }
  ],
  "images": [
    {
      "uri": "textures/Material_13_baseColor.jpeg"
    },
    {
      "uri": "textures/Material_13_metallicRoughness.png"
    },
    {
      "uri": "textures/Material_4_baseColor.jpeg"
    },
    {
      "uri": "textures/Material_4_metallicRoughness.png"
    },
    {
      "uri": "textures/Material_4_normal.png"
    },
    {
      "uri": "textures/Material_3_baseColor.jpeg"
    },
    {
      "uri": "textures/01_-_Default_baseColor.jpeg"
    },
    {
      "uri": "textures/Material_12_baseColor.jpeg"
    }
  ],
  "materials": [
    {
      "doubleSided": true,
      "name": "Material_13",
      "pbrMetallicRoughness": {
        "baseColorFactor": [
          1,
          1,
          1,
          1
        ],
        "baseColorTexture": {
          "index": 0,
          "texCoord": 0
        },
        "metallicFactor": 0.42590910015684186,
        "metallicRoughnessTexture": {
          "index": 1,
          "texCoord": 0
        },
        "roughnessFactor": 0.39560606985381153
      }
    },
    {
      "doubleSided": true,
      "name": "Material_4",
      "normalTexture": {
        "index": 4,
        "scale": 1,
        "texCoord": 0
      },
      "pbrMetallicRoughness": {
        "baseColorFactor": [
          1,
          1,
          1,
          1
        ],
        "baseColorTexture": {
          "index": 2,
          "texCoord": 0
        },
        "metallicFactor": 0.37742425167199339,
        "metallicRoughnessTexture": {
          "index": 3,
          "texCoord": 0
        },
        "roughnessFactor": 1
      }
    },
    {
      "doubleSided": true,
      "name": "Material_3",
      "pbrMetallicRoughness": {
        "baseColorFactor": [
          1,
          1,
          1,
          1
        ],
        "baseColorTexture": {
          "index": 5,
          "texCoord": 0
        },
        "metallicFactor": 0,
        "roughnessFactor": 0.59999999999999998
      }
    },
    {
      "doubleSided": true,
      "name": "01_-_Default",
      "pbrMetallicRoughness": {
        "baseColorFactor": [
          1,
          1,
          1,
          1
        ],
        "baseColorTexture": {
          "index": 6,
          "texCoord": 0
        },
        "metallicFactor": 0.54712122136896302,
        "metallicRoughnessTexture": {
          "index": 3,
          "texCoord": 0
        },
        "roughnessFactor": 1
      }
    },
    {
      "doubleSided": true,
      "name": "01_-_Default_0",
      "pbrMetallicRoughness": {
        "baseColorFactor": [
          1,
          1,
          1,
          1
        ],
        "baseColorTexture": {
          "index": 6,
          "texCoord": 0
        },
        "metallicFactor": 0.31075758500532669,
        "roughnessFactor": 0.61045453620679457
      }
    },
    {
      "doubleSided": true,
      "name": "Material_14",
      "pbrMetallicRoughness": {
        "baseColorFactor": [
          1,
          1,
          1,
          1
        ],
        "metallicFactor": 0.26227273652047822,
        "roughnessFactor": 0.735000009247751
      }
    },
    {
      "doubleSided": true,
      "name": "Material_12",
      "pbrMetallicRoughness": {
        "baseColorFactor": [
          1,
          1,
          1,
          1
        ],
        "baseColorTexture": {
          "index": 7,
          "texCoord": 0
        },
        "metallicFactor": 0,
        "roughnessFactor": 0.59999999999999998
      }
    }
  ],
  "meshes": [
    {
      "name": "Cylinder01_Material #13_0",
      "primitives": [
        {
          "attributes": {
            "NORMAL": 1,
            "POSITION": 0,
            "TEXCOORD_0": 2
          },
          "indices": 3,
          "material": 0,
          "mode": 4
        }
      ]
    },
    {
      "name": "GrowFX01_Material #4_0",
      "primitives": [
        {
          "attributes": {
            "NORMAL": 5,
            "POSITION": 4,
            "TANGENT": 6,
            "TEXCOORD_0": 7
          },
          "indices": 8,
          "material": 1,
          "mode": 4
        }
      ]
    },
    {
      "name": "GrowFX01_Material #3_0",
      "primitives": [
        {
          "attributes": {
            "NORMAL": 10,
            "POSITION": 9,
            "TEXCOORD_0": 11
          },
          "indices": 12,
          "material": 2,
          "mode": 4
        }
      ]
    },
    {
      "name": "GrowFX01_Material #3_0",
      "primitives": [
        {
          "attributes": {
            "NORMAL": 14,
            "POSITION": 13,
            "TEXCOORD_0": 15
          },
          "indices": 16,
          "material": 2,
          "mode": 4
        }
      ]
    },
    {
      "name": "GrowFX01_Material #3_0",
      "primitives": [
        {
          "attributes": {
            "NORMAL": 18,
            "POSITION": 17,
            "TEXCOORD_0": 19
          },
          "indices": 20,
          "material": 2,
          "mode": 4
        }
      ]
    },
    {
      "name": "GrowFX01_01 - Default_0",
      "primitives": [
        {
          "attributes": {
            "NORMAL": 22,
            "POSITION": 21,
            "TEXCOORD_0": 23
          },
          "indices": 24,
          "material": 3,
          "mode": 4
        }
      ]
    },
    {
      "name": "GrowFX01_01 - Default_0",
      "primitives": [
        {
          "attributes": {
            "NORMAL": 26,
            "POSITION": 25,
            "TEXCOORD_0": 27
          },
          "indices": 28,
          "material": 3,
          "mode": 4
        }
      ]
    },
    {
      "name": "GrowFX01_01 - Default_0",
      "primitives": [
        {
          "attributes": {
            "NORMAL": 30,
            "POSITION": 29,
            "TEXCOORD_0": 31
          },
          "indices": 32,
          "material": 4,
          "mode": 4
        }
      ]
    },
    {
      "name": "Line01_Material #14_0",
      "primitives": [
        {
          "attributes": {
            "NORMAL": 34,
            "POSITION": 33,
            "TEXCOORD_0": 35
          },
          "indices": 36,
          "material": 5,
          "mode": 4
        }
      ]
    },
    {
      "name": "Plane01_Material #12_0",
      "primitives": [
        {
          "attributes": {
            "NORMAL": 38,
            "POSITION": 37,
            "TEXCOORD_0": 39
          },
          "indices": 40,
          "material": 6,
          "mode": 4
        }
      ]
    }
  ],
  "nodes": [
    {
      "children": [
        1
      ],
      "name": "RootNode (gltf orientation matrix)",
      "rotation": [
        -0.70710678118654746,
        -0,
        -0,
        0.70710678118654757
      ]
    },
    {
      "children": [
        2
      ],
      "name": "RootNode (model correction matrix)"
    },
    {
      "children": [
        3
      ],
      "matrix": [
        1,
        0,
        0,
        0,
        0,
        0,
        1,
        0,
        0,
        -1,
        0,
        0,
        0,
        0,
        0,
        1
      ],
      "name": "bonsai-corona.fbx"
    },
    {
      "children": [
        4
      ],
      "name": "RootNode"
    },
    {
      "children": [
        5,
        7,
        15,
        18
      ],
      "matrix": [
        -0.999999999999996,
        1.2246468525851679e-16,
        -8.7422776695940424e-08,
        0,
        -8.7422776695940424e-08,
        -2.2204460492503131e-16,
        0.99999999999999623,
        0,
        1.2246467202362698e-16,
        1,
        2.2204460492503131e-16,
        0,
        -3.7823305130004883,
        45.720771789550781,
        -78.045013427734375,
        1
      ],
      "name": "Group001"
    },
    {
      "children": [
        6
      ],
      "matrix": [
        -0.9852244527253381,
        1.4070482297817655,
        4.9303805555596248e-32,
        0,
        -1.4070482297817655,
        -0.9852244527253381,
        1.2325951388899059e-32,
        0,
        3.8376308324096214e-32,
        -3.3317462078007223e-32,
        1.7176879644393921,
        0,
        11.759632110595703,
        9.3689193725585938,
        -44.380252838134766,
        1
      ],
      "name": "Cylinder01"
    },
    {
      "mesh": 0,
      "name": "Cylinder01_Material #13_0"
    },
    {
      "children": [
        8,
        9,
        10,
        11,
        12,
        13,
        14
      ],
      "matrix": [
        -0.57357591170247169,
        0.81915241165162822,
        -2.4651903288156619e-32,
        0,
        -0.81915241165162822,
        -0.57357591170247169,
        0,
        0,
        -1.413973790370559e-32,
        2.0193666030296198e-32,
        1,
        0,
        12.888750076293945,
        9.3260955810546875,
        -27.524444580078125,
        1
      ],
      "name": "GrowFX01"
    },
    {
      "mesh": 1,
      "name": "GrowFX01_Material #4_0"
    },
    {
      "mesh": 2,
      "name": "GrowFX01_Material #3_0"
    },
    {
      "mesh": 3,
      "name": "GrowFX01_Material #3_0"
    },
    {
      "mesh": 4,
      "name": "GrowFX01_Material #3_0"
    },
    {
      "mesh": 5,
      "name": "GrowFX01_01 - Default_0"
    },
    {
      "mesh": 6,
      "name": "GrowFX01_01 - Default_0"
    },
    {
      "mesh": 7,
      "name": "GrowFX01_01 - Default_0"
    },
    {
      "children": [
        16
      ],
      "matrix": [
        -0.86036453753769315,
        1.2287281483499726,
        -8.3266726846886741e-17,
        0,
        3.4666103404523696e-07,
        2.4273461990409473e-07,
        1.4999999999999405,
        0,
        1.2287281483499237,
        0.86036453753765885,
        -4.23194953413919e-07,
        0,
        11.775176048278809,
        9.398101806640625,
        -45.692497253417969,
        1
      ],
      "name": "Line01"
    },
    {
      "children": [
        17
      ],
      "matrix": [
        1,
        0,
        -0,
        0,
        0,
        1,
        0,
        0,
        0,
        0,
        1,
        0,
        7.5265650749206543,
        1.619861364364624,
        1.1920928955078125e-07,
        1
      ],
      "name": ""
    },
    {
      "mesh": 8,
      "name": "Line01_Material #14_0"
    },
    {
      "children": [
        19
      ],
      "matrix": [
        -1.1758650158833659,
        1.6793116466571538,
        2.4651903694579061e-32,
        0,
        -1.6793116466571538,
        -1.1758650158833659,
        0,
        0,
        1.4139737691327805e-32,
        -2.0193666675154481e-32,
        2.0500600337982178,
        0,
        11.217362403869629,
        8.90692138671875,
        -19.799617767333984,
        1
      ],
      "name": "Plane01"
    },
    {
      "mesh": 9,
      "name": "Plane01_Material #12_0"
    }
  ],
  "samplers": [
    {
      "magFilter": 9729,
      "minFilter": 9987,
      "wrapS": 10497,
      "wrapT": 10497
    }
  ],
  "scene": 0,
  "scenes": [
    {
      "name": "OSG_Scene",
      "nodes": [
        0
      ]
    }
  ],
  "textures": [
    {
      "sampler": 0,
      "source": 0
    },
    {
      "sampler": 0,
      "source": 1
    },
    {
      "sampler": 0,
      "source": 2
    },
    {
      "sampler": 0,
      "source": 3
    },
    {
      "sampler": 0,
      "source": 4
    },
    {
      "sampler": 0,
      "source": 5
    },
    {
      "sampler": 0,
      "source": 6
    },
    {
      "sampler": 0,
      "source": 7
    }
  ]
}

